HIERARCHY
ROOT SpineBase
{
  OFFSET 0.000000 0.000000 0.000000
  CHANNELS 6 Xposition Yposition Zposition Zrotation Xrotation Yrotation
  JOINT SpineMid
  {
    OFFSET 0.000000 32.462908 0.000000
    CHANNELS 3 Zrotation Xrotation Yrotation
    JOINT SpineShoulder
    {
      OFFSET 0.199107 24.083960 -0.748487
      CHANNELS 3 Zrotation Xrotation Yrotation
      JOINT Neck
      {
        OFFSET 0.148644 7.960639 -0.574801
        CHANNELS 3 Zrotation Xrotation Yrotation
        JOINT Head
        {
          OFFSET -6.208531 13.861143 -0.575616
          CHANNELS 3 Zrotation Xrotation Yrotation
          End Site
          {
            OFFSET 0 0 0
          }
        }
      }
      JOINT ShoulderLeft
      {
        OFFSET -17.554042 -6.834474 5.333072
        CHANNELS 3 Zrotation Xrotation Yrotation
        JOINT ElbowLeft
        {
          OFFSET -1.059689 -28.879328 2.292903
          CHANNELS 3 Zrotation Xrotation Yrotation
          JOINT WristLeft
          {
            OFFSET 1.491584 -22.959657 -4.174647
            CHANNELS 3 Zrotation Xrotation Yrotation
            JOINT HandLeft
            {
              OFFSET 0.182030 -3.540969 -1.418134
              CHANNELS 3 Zrotation Xrotation Yrotation
              JOINT HandTipLeft
              {
                OFFSET 2.351315 -6.636708 -3.488776
                CHANNELS 3 Zrotation Xrotation Yrotation
                End Site
                {
                  OFFSET 0 0 0
                }
              }
              JOINT ThumbLeft
              {
                OFFSET -1.308025 -3.507756 -2.583199
                CHANNELS 3 Zrotation Xrotation Yrotation
                End Site
                {
                  OFFSET 0 0 0
                }
              }
            }
          }
        }
      }
      JOINT ShoulderRight
      {
        OFFSET 15.715773 -3.077059 -7.678635
        CHANNELS 3 Zrotation Xrotation Yrotation
        JOINT ElbowRight
        {
          OFFSET 7.605558 -26.760740 -1.104285
          CHANNELS 3 Zrotation Xrotation Yrotation
          JOINT WristRight
          {
            OFFSET 0.073585 -22.708621 -5.975952
            CHANNELS 3 Zrotation Xrotation Yrotation
            JOINT HandRight
            {
              OFFSET -1.358902 -7.584852 -0.989853
              CHANNELS 3 Zrotation Xrotation Yrotation
              JOINT HandTipRight
              {
                OFFSET -0.429295 -5.720231 -1.273487
                CHANNELS 3 Zrotation Xrotation Yrotation
                End Site
                {
                  OFFSET 0 0 0
                }
              }
              JOINT ThumbRight
              {
                OFFSET -2.386478 0.911480 -1.993184
                CHANNELS 3 Zrotation Xrotation Yrotation
                End Site
                {
                  OFFSET 0 0 0
                }
              }
            }
          }
        }
      }
    }
  }
  JOINT HipLeft
  {
    OFFSET -6.187159 -0.044960 -1.546682
    CHANNELS 3 Zrotation Xrotation Yrotation
    JOINT KneeLeft
    {
      OFFSET 4.092944 -34.414671 4.145945
      CHANNELS 3 Zrotation Xrotation Yrotation
      JOINT AnkleLeft
      {
        OFFSET 5.114997 -37.134420 7.429025
        CHANNELS 3 Zrotation Xrotation Yrotation
        JOINT FootLeft
        {
          OFFSET -2.114777 -8.035671 -5.795924
          CHANNELS 3 Zrotation Xrotation Yrotation
          End Site
          {
            OFFSET 0 0 0
          }
        }
      }
    }
  }
  JOINT HipRight
  {
    OFFSET 7.951588 1.837664 -5.678296
    CHANNELS 3 Zrotation Xrotation Yrotation
    JOINT KneeRight
    {
      OFFSET 10.168110 -34.605637 1.112228
      CHANNELS 3 Zrotation Xrotation Yrotation
      JOINT AnkleRight
      {
        OFFSET 3.396938 -36.638564 6.478987
        CHANNELS 3 Zrotation Xrotation Yrotation
        JOINT FootRight
        {
          OFFSET -1.999598 -8.311994 -4.788267
          CHANNELS 3 Zrotation Xrotation Yrotation
          End Site
          {
            OFFSET 0 0 0
          }
        }
      }
    }
  }
}
MOTION
Frames: 5
Frame Time: 0.033333
-82.173042 81.226022 338.187878 0.696260 0.228626 23.856153 -0.729238 0.072512 -23.857081 0.929476 -0.298520 0.075107 -0.681980 4.471766 1.800059 0.000000 0.000000 0.000000 -1.919014 0.553024 -0.150749 -1.428196 -1.977943 0.372478 0.772175 4.638752 0.538669 -8.326437 -6.883303 2.283641 0.000000 0.000000 0.000000 0.000000 0.000000 0.000000 0.459959 -2.406957 -0.869083 2.857535 -4.570595 -0.215549 -1.739665 -1.896236 2.652286 5.616079 -0.264871 -2.914502 0.000000 0.000000 0.000000 0.000000 0.000000 0.000000 -2.109897 3.254259 -23.844361 3.687235 -3.146400 0.250737 12.617895 4.395007 -11.707215 0.000000 0.000000 0.000000 -0.729238 0.072512 -23.857081 -0.000000 0.000000 0.000000 0.899576 10.521228 -2.985819 0.000000 0.000000 0.000000
-82.189088 81.186799 338.180825 0.704313 0.158437 21.979189 -0.712420 0.116686 -21.979438 0.897941 -0.344278 0.073959 -1.189571 4.144908 1.637081 0.000000 0.000000 0.000000 -1.759071 -0.363385 -0.110952 -1.057723 -0.664634 0.298246 -0.666009 3.078135 0.939307 -5.136126 -4.040051 1.790570 0.000000 0.000000 0.000000 0.000000 0.000000 0.000000 2.343707 -4.062282 -1.341283 0.442024 -0.684628 0.389901 -2.500831 1.178250 1.634692 5.934129 -4.631598 -1.442824 0.000000 0.000000 0.000000 0.000000 0.000000 0.000000 -2.091016 2.856085 -21.980408 3.392581 -2.887022 0.221583 12.663902 4.609669 -11.747063 0.000000 0.000000 0.000000 -0.712420 0.116686 -21.979438 -0.000000 0.000000 0.000000 3.682070 1.297706 -2.478373 0.000000 0.000000 0.000000
-82.099813 81.183518 338.203413 0.804205 0.089298 19.891734 -0.786608 0.189655 -19.891059 0.917441 -0.396504 0.076816 -1.804983 3.540661 1.337106 0.000000 0.000000 0.000000 -1.591986 -1.128238 -0.072188 -0.749274 1.074219 0.250329 0.064419 0.342461 0.313520 -7.426024 -5.077122 1.942045 0.000000 0.000000 0.000000 0.000000 0.000000 0.000000 4.375307 -4.391947 -1.448935 -3.125942 2.974886 1.030615 -2.241167 6.107147 -0.163353 4.126421 -9.685046 0.804325 0.000000 0.000000 0.000000 0.000000 0.000000 0.000000 -2.270022 2.540065 -19.917347 3.194402 -2.601711 0.206766 14.615033 5.283704 -13.441678 0.000000 0.000000 0.000000 -1.742120 0.609028 -19.897531 1.041180 -0.069073 0.013759 4.224407 0.051020 -2.469700 0.000000 0.000000 0.000000
-81.994050 81.157228 338.224176 0.903967 0.039335 17.945689 -0.143754 -0.257246 -17.915691 0.113064 -0.184906 0.050327 -2.463530 2.872983 1.005297 0.000000 0.000000 0.000000 -1.629910 -1.669267 -0.056771 -0.162369 2.173639 0.150107 -0.422350 0.088227 0.355197 -7.623027 -5.866555 1.742380 0.000000 0.000000 0.000000 0.000000 0.000000 0.000000 5.524548 -4.351779 -1.459033 -4.932133 5.277297 1.281110 0.126189 10.290030 -1.907085 0.454972 -13.697135 2.270603 0.000000 0.000000 0.000000 0.000000 0.000000 0.000000 -2.437600 2.180744 -18.000571 2.976725 -2.217490 0.200654 14.985985 4.902611 -13.522366 0.000000 0.000000 0.000000 -2.152588 0.905071 -17.907258 1.422572 -0.237897 -0.021145 2.878508 3.909202 -2.660898 0.000000 0.000000 0.000000
-81.864694 81.122897 338.207858 1.029723 0.032735 16.132887 -0.169635 -0.240405 -16.100023 0.077962 -0.185919 0.051522 -3.096205 2.189332 0.676010 0.000000 0.000000 0.000000 -1.694386 -1.937415 -0.053290 0.681717 2.370555 -0.047063 -2.294037 2.259125 1.072857 -7.468648 -8.358102 1.076446 0.000000 0.000000 0.000000 0.000000 0.000000 0.000000 5.766008 -3.500791 -1.273034 -5.049001 5.815041 0.965687 1.815020 13.580035 -3.182526 -2.921577 -15.761928 2.856682 0.000000 0.000000 0.000000 0.000000 0.000000 0.000000 -2.642866 1.775429 -16.223932 2.758849 -1.786659 0.199742 15.280639 5.222864 -13.743027 0.000000 0.000000 0.000000 -2.644559 1.033326 -16.084635 1.797531 -0.291696 -0.023246 3.290878 3.313067 -2.761266 0.000000 0.000000 0.000000
